<?xml version="1.0" standalone="no"?>
<!DOCTYPE svg PUBLIC "-//W3C//DTD SVG 1.1//EN" "http://www.w3.org/Graphics/SVG/1.1/DTD/svg11.dtd">
<svg xmlns="http://www.w3.org/2000/svg">
<metadata>Copyright (C) 2021 by original authors @ fontello.com</metadata>
<defs>
<font id="fluent" horiz-adv-x="1000" >
<font-face font-family="fluent" font-weight="400" font-stretch="normal" units-per-em="1000" ascent="850" descent="-150" />
<missing-glyph horiz-adv-x="1000" />
<glyph glyph-name="icon-arrow-circle-left" unicode="&#xe800;" d="M500-67c-230 0-417 187-417 417 0 230 187 417 417 417 230 0 417-187 417-417 0-230-187-417-417-417z m0 63c196 0 354 158 354 354 0 196-158 354-354 354-196 0-354-158-354-354 0-196 158-354 354-354z m15 169l-3-4c-11-11-29-12-41-3l-3 3-167 167c-11 11-12 28-3 41l3 3 167 167c12 12 32 12 44 0 11-11 12-29 3-41l-3-3-114-114 279 0c16 0 29-12 31-27l0-4c0-16-11-29-27-31l-4 0-279 0 114-114c11-11 12-28 3-40l-3-4 3 4z" horiz-adv-x="1000" />

<glyph glyph-name="icon-arrow-circle-right" unicode="&#xe801;" d="M500 767c230 0 417-187 417-417 0-230-187-417-417-417-230 0-417 187-417 417 0 230 187 417 417 417z m0-63c-196 0-354-158-354-354 0-196 158-354 354-354 196 0 354 158 354 354 0 196-158 354-354 354z m-15-169l3 4c11 11 29 12 41 3l4-3 166-167c11-11 12-28 3-41l-3-3-166-167c-13-12-32-12-45 0-11 11-12 29-3 41l3 3 114 114-279 0c-16 0-29 12-31 27l0 4c0 16 11 29 27 31l4 0 279 0-114 114c-11 11-12 28-3 40l3 4-3-4z" horiz-adv-x="1000" />

<glyph glyph-name="icon-arrow-clockwise" unicode="&#xe802;" d="M776 712c16 0 29-12 32-28l0-4v-121c0-16-12-29-28-31l-4-1h-121c-17 0-32 15-32 32 0 16 12 30 28 32l4 0 41 0c-121 98-299 90-412-22-121-121-121-317 0-437 121-121 317-121 437 0 74 73 104 177 85 277-3 17 8 34 26 37 17 4 34-8 37-25 23-121-14-246-103-335-145-145-381-145-527 0-146 146-146 382 0 528 138 138 358 145 505 21l0 45c0 17 14 32 32 32z" horiz-adv-x="1000" />

<glyph glyph-name="icon-arrow-down" unicode="&#xe803;" d="M825 297c12 13 11 33-1 44-13 12-33 12-45-1l-248-260v614c0 17-14 31-31 31-17 0-31-14-31-31v-614l-248 260c-12 13-32 13-45 1-12-11-12-31-1-44l295-309c7-7 15-11 24-12 2-1 4-1 6-1 2 0 4 0 6 1 9 1 18 5 24 12l295 309z" horiz-adv-x="1000" />

<glyph glyph-name="icon-arrow-download" unicode="&#xe804;" d="M760-4c18 0 32-14 32-31 0-18-14-32-32-32l-541 0c-17 0-31 14-31 31 0 18 14 32 31 32l541 0z m-275 770l5 1c15 0 29-12 31-28l0-4 0-570 155 155c11 11 28 12 41 3l3-3c11-11 12-28 3-41l-3-3-208-208c-11-11-29-12-41-3l-3 3-209 208c-12 12-12 32 0 44 11 11 29 12 41 3l3-3 155-155 0 570c0 16 12 29 27 31l5 1-5-1z" horiz-adv-x="1000" />

<glyph glyph-name="icon-arrow-export" unicode="&#xe805;" d="M115 663c16 0 29-12 31-27l0-5 0-542c0-17-14-31-31-31-16 0-29 12-31 27l-1 4 0 542c0 18 14 32 32 32z m537-76l3 4c11 11 28 12 41 3l3-3 208-208c12-11 13-29 3-41l-3-4-208-208c-12-12-32-12-44 0-11 11-12 28-3 41l3 3 155 155-570 0c-16 0-29 12-31 27l0 4c0 16 11 29 27 31l4 1 570 0-155 155c-11 11-12 28-3 40l3 4-3-4z" horiz-adv-x="1000" />

<glyph glyph-name="icon-arrow-import" unicode="&#xe806;" d="M885 663c16 0 29-12 31-27l1-5v-542c0-17-14-31-32-31-15 0-28 12-30 27l-1 4v542c0 18 14 32 31 32z m-358-76l3 4c11 11 28 12 41 3l3-3 208-208c12-11 13-29 3-41l-3-4-208-208c-12-12-32-12-44 0-11 11-12 28-3 41l3 3 155 155-570 0c-16 0-29 12-31 27l-1 4c0 16 12 29 27 31l5 1 570 0-155 155c-11 11-12 28-3 40l3 4-3-4z" horiz-adv-x="1000" />

<glyph glyph-name="icon-arrow-left" unicode="&#xe807;" d="M447 25c13-11 33-11 44 2 12 12 12 32-1 44l-260 248 614 0c17 0 31 14 31 31 0 17-14 31-31 31l-614 0 260 248c13 12 13 32 1 45-11 12-31 13-44 1l-309-295c-7-6-11-15-12-24-1-2-1-4-1-6 0-2 0-4 1-6 1-9 5-17 12-24l309-295z" horiz-adv-x="1000" />

<glyph glyph-name="icon-arrow-next" unicode="&#xe808;" d="M760 725c16 0 29-12 31-27l1-4v-688c0-17-14-31-32-31-15 0-28 12-31 27l0 4v688c0 17 14 31 31 31z m-542-9c11 11 28 12 40 3l4-3 343-344c12-11 13-28 4-41l-4-3-343-344c-12-12-32-12-44 0-12 11-13 29-3 41l3 3 321 322-321 322c-13 12-13 32 0 44z" horiz-adv-x="1000" />

<glyph glyph-name="icon-arrow-previous" unicode="&#xe809;" d="M240 725c-16 0-29-12-31-27l-1-4v-688c0-17 14-31 32-31 15 0 29 12 31 27l0 4v688c0 17-14 31-31 31z m543-9c-12 11-29 12-41 3l-4-3-343-344c-11-11-12-28-3-41l3-3 343-344c13-12 32-12 45 0 11 11 12 29 3 41l-3 3-322 322 322 322c12 12 12 32 0 44z" horiz-adv-x="1000" />

<glyph glyph-name="icon-arrow-right" unicode="&#xe80a;" d="M553 675c-13 12-32 11-44-1-12-13-12-33 1-45l260-248h-614c-17 0-31-14-31-31 0-17 14-31 31-31h614l-260-248c-13-12-13-32-1-44 12-13 31-13 44-2l309 295c7 7 11 15 12 24 1 2 1 4 1 6 0 2 0 4-1 6-1 9-5 18-12 24l-309 295z" horiz-adv-x="1000" />

<glyph glyph-name="icon-arrow-sync" unicode="&#xe80b;" d="M323 634c10-14 8-33-6-44-74-56-119-144-119-240 0-156 118-284 269-300l-28 28c-12 12-12 32 0 44 11 11 28 12 41 3l3-3 83-83c11-11 12-29 3-41l-3-3-83-84c-12-12-32-12-44 0-11 11-12 29-3 41l3 3 31 32c-187 15-335 172-335 363 0 115 54 222 144 290 14 11 33 8 44-6z m238 155c12-12 12-32 0-44l-31-32c187-15 335-172 335-363 0-110-50-212-133-281-13-11-33-9-44 4-11 13-9 33 4 44 69 57 110 142 110 233 0 156-118 284-269 300l28-28c12-12 12-32 0-44-12-12-32-12-44 0l-83 83c-12 12-12 32 0 44l83 84c12 12 32 12 44 0z" horiz-adv-x="1000" />

<glyph glyph-name="icon-arrow-top" unicode="&#xe80c;" d="M175 403c-11-13-11-32 2-44 12-12 32-12 44 1l248 260v-614c0-17 14-31 31-31 17 0 31 14 31 31v614l248-260c12-13 32-13 45-1 12 12 13 31 1 44l-295 309c-6 7-15 11-24 12-2 1-4 1-6 1-2 0-4 0-6-1-9-1-17-5-24-12l-295-309z" horiz-adv-x="1000" />

<glyph glyph-name="icon-arrow-upload" unicode="&#xe80d;" d="M760 704c18 0 32 14 32 31 0 17-14 31-32 31l-541 1c-17 0-31-14-31-32 0-17 14-31 31-31l541 0z m-275-771l5 0c15 0 29 12 31 27l0 4 0 571 155-155c11-11 28-12 41-3l3 3c11 11 12 28 3 40l-3 4-208 208c-11 11-29 12-41 3l-3-3-209-208c-12-12-12-32 0-44 11-11 29-12 41-3l3 3 155 154 0-570c0-15 12-29 27-31z" horiz-adv-x="1000" />

<glyph glyph-name="icon-caret-down" unicode="&#xe80e;" d="M254 517c-44 0-68-53-39-87l230-263c29-33 81-33 110 0l230 263c29 34 6 87-39 87h-492z" horiz-adv-x="1000" />

<glyph glyph-name="icon-caret-left" unicode="&#xe80f;" d="M625 104c0-44-53-68-86-39l-263 230c-33 29-33 81 0 110l263 230c33 29 86 6 86-39l0-492z" horiz-adv-x="1000" />

<glyph glyph-name="icon-caret-right" unicode="&#xe810;" d="M375 104c0-44 53-68 86-39l263 230c34 29 34 81 0 110l-263 230c-33 29-86 6-86-39v-492z" horiz-adv-x="1000" />

<glyph glyph-name="icon-caret-up" unicode="&#xe811;" d="M254 142c-44 0-68 53-39 87l230 263c29 33 81 33 110 0l230-263c29-34 6-87-39-87h-492z" horiz-adv-x="1000" />

<glyph glyph-name="icon-add" unicode="&#xe812;" d="M490 725c15 0 29-12 31-27l0-4 0-302h302c17 0 31-14 31-32 0-15-11-28-27-30l-4-1h-302l0-302c0-17-14-31-31-31-16 0-29 12-31 27l0 4-1 302h-302c-17 0-31 14-31 31 0 16 12 29 27 31l4 1h302l0 302c0 17 14 31 32 31z" horiz-adv-x="1000" />

<glyph glyph-name="icon-cloud-download" unicode="&#xe813;" d="M500 517c15 0 29-12 31-27l0-5 0-404 110 111 4 3c12 9 30 8 41-3 11-11 12-29 3-41l-3-4-164-163-3-3c-11-8-26-8-37 0l-4 3-164 163-3 4c-8 11-8 26 0 37l3 4 4 3c11 8 26 8 37 0l4-3 109-110 0 403c0 18 14 32 32 32z m-10 250c108 0 203-70 237-171l4 1c91 0 165-74 165-165 0-91-74-165-165-165h-116c-18 0-32 14-32 31 0 17 14 31 32 31h116c57 0 103 46 103 103 0 56-46 102-103 102-7 0-14-1-21-2-16-3-31 6-36 20l-1 4-2 9c-22 81-96 139-181 139-86 0-160-58-182-139l-2-8 0-1c-2-10-8-17-17-21l-4-2-2-1-2 0c-1 0-2 0-3 0l-4 0-5 0c-7 2-14 2-21 2-56 0-102-46-102-102 0-55 42-99 96-103l6 0h117c17 0 31-14 31-31 0-16-12-29-27-31l-4 0h-117c-91 0-165 74-165 165 0 91 74 165 165 165l5 0c33 100 128 170 237 170z" horiz-adv-x="1000" />

<glyph glyph-name="icon-cloud-upload" unicode="&#xe814;" d="M519 510l3-3 164-163c12-12 12-32 0-44-11-11-29-12-41-3l-4 3-110 111 0-405c0-17-14-31-31-31-18 0-32 14-32 31l0 404-109-110c-11-11-29-12-41-3l-4 3c-11 11-12 28-3 40l3 4 164 163c11 12 28 13 41 3z m-19 173c147 0 230-94 242-209l4 0c94 0 171-74 171-166 0-92-77-166-171-166h-132l-4 0c-15 2-27 15-27 31 0 16 12 29 27 31l5 0 131 0 7 0c55 4 100 49 100 104 0 55-45 100-100 104l-7 0-33 0-4 0c-15 2-28 14-28 30 0 106-84 180-181 180-97 0-181-76-181-180 0-16-13-28-28-30l-4 0-33 0-7 0c-53-4-96-45-99-97l0-7 0-7c3-52 46-93 99-97l7 0 131 0c16 0 29-12 31-27l1-4c0-16-12-29-27-31l-5 0h-131c-94 0-171 74-171 166 0 92 77 166 171 166l4 0c12 115 95 209 242 209z" horiz-adv-x="1000" />

<glyph glyph-name="icon-delete" unicode="&#xe815;" d="M500 777c72 0 131-56 135-128l0-7h219c17 0 31-14 31-32 0-15-11-28-27-30l-4-1h-33l-53-542c-6-57-51-100-107-103l-7-1h-308c-56 0-104 41-113 96l-1 8-53 542h-33c-16 0-29 12-31 27l0 4c0 16 11 29 27 31l4 1h219c0 75 60 135 135 135z m258-198h-516l53-536c2-25 22-44 46-47l5 0h308c25 0 46 18 51 42l1 5 52 536z m-185-114c16 0 29-12 31-27l0-5v-291c0-18-14-32-31-32-16 0-29 12-31 27l0 5v291c0 18 14 32 31 32z m-146 0c16 0 29-12 31-27l0-5v-291c0-18-14-32-31-32-16 0-29 12-31 27l0 5v291c0 18 14 32 31 32z m73 250c-38 0-70-30-73-67l0-6h146c0 40-33 73-73 73z" horiz-adv-x="1000" />

<glyph glyph-name="icon-dismiss-circle" unicode="&#xe816;" d="M500 767c230 0 417-187 417-417 0-230-187-417-417-417-230 0-417 187-417 417 0 230 187 417 417 417z m147-270l-3 3c-11 8-26 8-37 0l-4-3-103-103-103 103-3 3c-11 8-26 8-37 0l-4-3-3-3c-8-11-8-26 0-37l3-4 103-103-103-103-3-3c-8-11-8-26 0-37l3-4 3-3c11-8 26-8 37 0l4 3 103 103 103-103 3-3c11-8 26-8 37 0l4 3 3 3c8 11 8 26 0 37l-3 4-103 103 103 103 3 3c8 11 8 26 0 37l-3 4z" horiz-adv-x="1000" />

<glyph glyph-name="icon-dismiss" unicode="&#xe817;" d="M183 660l3 4c11 11 29 12 41 3l3-3 270-270 270 270c12 12 32 12 44 0 12-12 12-32 0-44l-270-270 270-270c11-11 12-28 3-40l-3-4c-11-11-29-12-41-3l-3 3-270 270-270-270c-12-12-32-12-44 0-12 12-12 32 0 44l270 270-270 270c-11 11-12 28-3 40l3 4-3-4z" horiz-adv-x="1000" />

<glyph glyph-name="icon-drag" unicode="&#xe818;" d="M500 163c16 0 29-12 31-27l0-5v-91l30 30c11 11 29 12 41 3l3-3c12-11 13-28 4-41l-4-3-83-84-1-1-3-2-4-3-4-1-4-1-4-1h-4l-5 1-3 1-2 1-3 1-2 2-2 1c-1 0-2 1-3 2l-83 84c-13 12-13 32 0 44 11 11 28 12 40 3l4-3 30-30v91c0 16 12 29 27 31l4 1z m0 312c69 0 125-56 125-125 0-69-56-125-125-125-69 0-125 56-125 125 0 69 56 125 125 125z m280-20c11 12 28 13 41 4l3-4 84-83 1-1 2-3 3-4 1-4 1-4 1-4v-4l-1-5-1-3-1-2-1-3-2-2-1-2-2-3-84-83c-12-13-32-13-44 0-11 11-12 28-3 40l3 4 30 30h-91c-16 0-29 12-31 27l0 4c0 16 11 29 27 31l4 0h91l-30 30c-11 11-12 29-3 41l3 3z m-604 0c12 13 32 13 44 0 11-11 12-28 3-40l-3-4-30-30h91c16 0 29-11 31-27l1-4c0-16-12-29-27-31l-5 0h-91l30-30c11-11 12-29 3-41l-3-3c-11-11-28-12-41-3l-3 3-83 83-4 5-3 4-1 3-1 4-1 4 0 4 1 5 1 3 1 2 1 3 2 3 1 1c1 1 2 2 3 3l83 83z m324-42c-34 0-62-28-62-63 0-34 28-62 62-62 35 0 63 28 63 62 0 35-28 63-63 63z m-6 353l3 1 4 0 2 0 4-1 3-1 2-1 3-1 3-2 1-1 3-2 83-84c13-12 13-32 0-44-11-11-28-12-40-3l-4 3-30 30v-91c0-16-11-29-27-31l-4 0c-16 0-29 11-31 27l0 4v91l-30-30c-11-11-29-12-41-3l-3 3c-11 11-12 28-3 41l3 3 83 84 5 3 3 3 4 1 4 1z" horiz-adv-x="1000" />

<glyph glyph-name="icon-edit-text" unicode="&#xe819;" d="M836 498c52-52 52-137 0-189l-297-297c-11-11-24-19-39-23l-179-54c-22-7-45 6-52 28-2 8-2 17 0 25l57 176c5 14 13 27 23 38l297 296c53 53 138 53 190 0z m-146-44l-297-297c-3-3-6-7-7-12l-45-139 141 43c5 1 9 4 13 7l297 297c28 28 28 73 0 101-28 28-74 28-102 0z m-350 297l2-4 135-344-48-48-31 78h-171l-42-105c-5-14-21-22-36-19l-4 2c-15 6-23 21-19 36l1 4 157 396c9 25 43 26 56 4z m-27-101l-61-154h122l-61 154z" horiz-adv-x="1000" />

<glyph glyph-name="icon-edit" unicode="&#xe81a;" d="M876 726c59-58 59-152 0-211l-498-498c-12-12-26-20-42-24l-213-59c-23-6-45 15-39 39l59 213c4 16 12 30 24 42l498 498c59 59 153 59 211 0z m-251-128l-414-415c-4-3-7-8-8-13l-44-161 161 44c5 1 10 4 13 8l415 414-123 123z m85 84l-41-40 123-123 40 41c34 33 34 88 0 122-34 34-89 34-122 0z" horiz-adv-x="1000" />

<glyph glyph-name="icon-eye-disabled" unicode="&#xe81b;" d="M93 758c-12-12-13-29-3-41l3-4 168-168c-80-56-140-140-165-239-4-17 6-34 23-38 16-4 33 6 37 23 23 88 77 162 150 209l75-75c-29-30-48-71-48-117 0-92 75-166 167-166 45 0 87 18 117 47l246-247c13-12 32-12 45 0 11 12 12 29 3 41l-3 4-255 254 0 1-50 49-120 120 0 0-120 120 0 0-47 47-179 180c-12 12-32 12-44 0z m332-377l148-148c-19-18-45-29-73-29-57 0-104 47-104 104 0 28 11 54 29 73z m75 240c-42 0-82-6-120-18l51-51c23 4 46 6 69 6 164 0 305-111 344-268 4-16 21-27 38-22 16 4 27 21 22 37-46 185-212 316-404 316z m8-146l159-159c-5 86-73 155-159 159z" horiz-adv-x="1000" />

<glyph glyph-name="icon-eye" unicode="&#xe81c;" d="M500 475c92 0 167-75 167-167 0-92-75-166-167-166-92 0-167 74-167 166 0 92 75 167 167 167z m0-63c-57 0-104-46-104-104 0-57 47-104 104-104 58 0 104 47 104 104 0 58-46 104-104 104z m0 209c192 0 358-131 404-315 4-17-6-34-22-38-17-4-34 6-38 23-39 156-181 267-344 267-163 0-305-111-344-268-4-16-21-27-37-22-17 4-27 21-23 37 46 185 212 316 404 316z" horiz-adv-x="1000" />

<glyph glyph-name="icon-graph" unicode="&#xe81d;" d="M125 590c0 74 61 135 135 135h250c75 0 136-61 136-135 0-18-14-32-31-32-18 0-32 14-32 32 0 40-32 73-73 73h-250c-40 0-72-33-72-73v-250c0-41 32-73 72-73h244c14 48 58 83 111 83 63 0 114-51 114-115 0-63-51-114-114-114-53 0-97 35-111 83h-244c-74 0-135 61-135 136v250z m615-157c40 0 73-32 73-73v-250c0-40-33-72-73-72h-250c-41 0-73 32-73 72 0 18-14 32-32 32-17 0-31-14-31-32 0-74 61-135 136-135h250c74 0 135 61 135 135v250c0 75-61 136-135 136h-244c-14 48-58 83-111 83-63 0-114-51-114-114 0-64 51-115 114-115 53 0 97 35 111 83h244z" horiz-adv-x="1000" />

<glyph glyph-name="icon-link-square" unicode="&#xe81e;" d="M260 725c-74 0-135-61-135-135v-250c0-75 61-136 135-136h53v63h-53c-40 0-72 32-72 73v250c0 40 32 73 72 73h250c41 0 73-33 73-73v-250c0-41-32-73-73-73h-52v-63h52c75 0 136 61 136 136v250c0 74-61 135-136 135h-250z m157-365c0 41 32 73 73 73h52v63h-52c-75 0-136-61-136-136v-250c0-74 61-135 136-135h250c74 0 135 61 135 135v250c0 75-61 136-135 136h-52v-63h52c40 0 73-32 73-73v-250c0-40-33-72-73-72h-250c-41 0-73 32-73 72v250z" horiz-adv-x="1000" />

<glyph glyph-name="icon-link" unicode="&#xe81f;" d="M385 558c18 0 32-14 32-31 0-16-12-29-27-31l-5 0h-93c-81 0-146-65-146-146 0-78 61-141 137-146l9 0h93c18 0 32-14 32-31 0-16-12-29-27-31l-5 0h-93c-115 0-209 93-209 208 0 112 88 203 198 208l11 0h93z m323 0c115 0 209-93 209-208 0-112-88-203-198-208l-11 0h-93c-18 0-32 14-32 31 0 16 12 29 27 31l5 0h93c81 0 146 66 146 146 0 78-60 141-137 146l-9 0h-93c-18 0-32 14-32 31 0 16 12 29 27 31l5 0h93z m-416-177h416c18 0 32-14 32-31 0-16-12-29-27-31l-5 0h-416c-18 0-32 14-32 31 0 16 12 29 27 31l5 0h416-416z" horiz-adv-x="1000" />

<glyph glyph-name="icon-lock" unicode="&#xe820;" d="M500 767c92 0 167-75 167-167v-83h73c51 0 93-42 93-94v-396c0-52-42-94-93-94h-480c-51 0-93 42-93 94v396c0 52 42 94 93 94h73v83c0 92 75 167 167 167z m240-313h-480c-17 0-31-14-31-31v-396c0-17 14-31 31-31h480c17 0 31 14 31 31v396c0 17-14 31-31 31z m-240-166c35 0 63-28 63-63 0-34-28-62-63-62-34 0-62 28-62 62 0 35 28 63 62 63z m0 416c-57 0-104-46-104-104v-83h208v83c0 58-46 104-104 104z" horiz-adv-x="1000" />

<glyph glyph-name="icon-minus" unicode="&#xe821;" d="M100 363c0 20 17 37 38 37h725c20 0 37-17 37-37 0-21-17-38-37-38h-725c-21 0-38 17-38 38z" horiz-adv-x="1000" />

<glyph glyph-name="icon-new" unicode="&#xe822;" d="M760 683c18 0 32-14 32-31v-354c0-17-14-31-32-31-17 0-31 14-31 31v354c0 17 14 31 31 31z m-593-593c0 17 14 31 31 31h354c17 0 31-14 31-31 0-18-14-32-31-32h-354c-17 0-31 14-31 32z m178 459c-12 12-32 12-44 0-12-12-12-32 0-44l271-271c12-12 32-12 44 0 12 12 12 32 0 44l-271 271z" horiz-adv-x="1000" />

<glyph glyph-name="icon-type-int" unicode="&#xe823;" d="M458 730c3 17-8 33-25 36-17 3-33-8-37-25l-42-224-198 0c-17 0-31-14-31-32 0-17 14-31 31-31l186 0-39-208-188 0c-18 0-32-14-32-31 0-18 14-32 32-32l176 0-40-213c-4-17 8-33 24-36 17-4 34 8 37 25l43 224 228 1-41-214c-3-17 8-33 25-36 17-4 33 8 37 25l42 225 198 0c17 0 31 14 31 31 0 17-14 31-31 31l-186 0 39 208 188 1c18 0 32 14 32 31 0 17-14 31-32 31l-176 0 41 213c3 17-8 33-25 36-17 3-34-8-37-25l-42-224-228 0 40 213z m-52-276l228 0-40-208-228 0 40 208z" horiz-adv-x="1000" />

<glyph glyph-name="icon-type-string" unicode="&#xe824;" d="M836 95l1-2c4-12 6-24 6-37 0-28-11-55-32-75-19-19-44-30-72-30-21 0-41 7-58 18l-3 2-2 2c-15 12-26 28-34 44l0 1-42 98h-199l-40-96c-7-19-19-37-38-50-18-12-38-19-59-19-23 0-51 7-73 29-21 21-29 47-29 72 0 8 2 18 3 24l1 7 237 574 0 1c8 18 21 36 40 48 19 14 42 20 65 18 20-1 39-7 56-18 19-13 32-31 39-51l233-560z m-291 538c-3 9-8 16-16 21-6 4-13 6-21 7-1 0-2 0-4 0-4 1-9 1-13 0-4-1-9-3-13-6-7-5-13-13-18-22l-233-567c-2-7-2-12-2-14 0-12 3-21 10-28 7-7 16-10 29-10 9 0 16 2 23 7 8 5 13 12 16 21l56 136h283l57-135c4-9 10-16 16-22 8-5 16-7 24-7 11 0 21 4 29 12 8 8 12 18 12 30 0 6-1 12-2 18l-233 559z m62-372l-107 257-106-257h213z m-120 63h26l-13 31-13-31z" horiz-adv-x="1000" />

<glyph glyph-name="icon-area" unicode="&#xe825;" d="M125 694c0 17 14 31 31 31 18 0 32-14 32-31v-261l152 80c9 5 21 5 30-1l159-93 234 175c9 7 22 8 32 3 11-6 18-16 18-28v-531h31c17 0 31-14 31-32 0-17-14-31-31-31h-688c-17 0-31 14-31 31v375c0 0 0 0 0 1v312z m63-332v-324h562v468l-200-150c-10-7-24-8-35-2l-162 96-165-88z" horiz-adv-x="1000" />

<glyph glyph-name="icon-bar-horizontal" unicode="&#xe826;" d="M875 90c0 51-42 93-94 93h-562c-52 0-94-42-94-93 0-52 42-94 94-94h562c52 0 94 42 94 94z m-167 270c0 52-42 94-93 94l-396 0c-52 0-94-42-94-94 0-51 42-93 94-93h396c51 0 93 42 93 93z m-166 271c0 52-42 94-94 94l-229 0c-52 0-94-42-94-94 0-51 42-93 94-93l229 0c52 0 94 42 94 93z m271-541c0-18-14-32-32-32h-562c-17 0-31 14-31 32 0 17 14 31 31 31h562c18 0 32-14 32-31z m-167 270c0-17-14-31-31-31h-396c-17 0-31 14-31 31 0 18 14 32 31 32h396c17 0 31-14 31-32z m-167 271c0-17-14-31-31-31l-229 0c-17 0-31 14-31 31 0 17 14 31 31 31l229 0c17 0 31-14 31-31z" horiz-adv-x="1000" />

<glyph glyph-name="icon-bar-vertical" unicode="&#xe827;" d="M240 725c51 0 93-42 93-94v-562c0-52-42-94-93-94-52 0-94 42-94 94v562c0 52 42 94 94 94z m270-167c52 0 94-42 94-93v-396c0-52-42-94-94-94-51 0-93 42-93 94v396c0 51 42 93 93 93z m271-166c52 0 94-42 94-94v-229c0-52-42-94-94-94-51 0-93 42-93 94v229c0 52 42 94 93 94z m-541 271c-18 0-32-14-32-32v-562c0-17 14-31 32-31 17 0 31 14 31 31v562c0 18-14 32-31 32z m270-167c-17 0-31-14-31-31v-396c0-17 14-31 31-31 18 0 32 14 32 31v396c0 17-14 31-32 31z m271-167c-17 0-31-14-31-31v-229c0-17 14-31 31-31 17 0 31 14 31 31v229c0 17-14 31-31 31z" horiz-adv-x="1000" />

<glyph glyph-name="icon-data-usage" unicode="&#xe828;" d="M760 725c64 0 115-51 115-114v-521c0-64-51-115-115-115h-520c-64 0-115 51-115 115v521c0 63 51 114 115 114h520z m0-62h-520c-29 0-52-24-52-52v-521c0-29 23-52 52-52h520c29 0 53 23 53 52v521c0 28-24 52-53 52z m-437-188c16 0 29-12 31-27l0-4v-271c0-17-14-31-31-31-16 0-29 11-31 27l0 4v271c0 17 14 31 31 31z m354 83c16 0 29-11 31-26l0-4v-356c0-17-14-30-31-30-16 0-29 11-31 26l0 4v356c0 17 14 30 31 30z m-178-208c15 0 28-11 31-26l0-4 1-148c0-16-13-30-30-30-15 0-28 11-30 26l-1 4-1 148c0 16 13 30 30 30z" horiz-adv-x="1000" />

<glyph glyph-name="icon-funnel" unicode="&#xe829;" d="M917 652c0-63-52-115-115-115l-604 0c-63 0-115 52-115 115 0 63 52 115 115 115l604 0c63 0 115-52 115-115z m-84-292c0-63-51-114-114-114l-438 0c-63 0-114 51-114 114 0 64 51 115 114 115h438c63 0 114-51 114-115z m-125-291c0-64-51-115-114-115h-188c-63 0-114 51-114 115 0 63 51 114 114 114h188c63 0 114-51 114-114z m146 583c0 29-23 52-52 52l-604 0c-29 0-52-23-52-52 0-29 23-52 52-52l604 0c29 0 52 23 52 52z m-83-292c0 29-23 53-52 53l-438 0c-28 0-52-24-52-53 0-28 24-52 52-52l438 0c29 0 52 24 52 52z m-125-291c0 29-23 52-52 52h-188c-28 0-52-23-52-52 0-29 24-52 52-52h188c29 0 52 23 52 52z" horiz-adv-x="1000" />

<glyph glyph-name="icon-histogram" unicode="&#xe82a;" d="M354 632c0 52 42 94 94 94h104c52 0 94-42 94-94v-74h135c52 0 94-42 94-93v-459c0-17-14-31-31-31h-688c-17 0-31 14-31 31v334c0 51 42 93 94 93h135v199z m63-594h166v594c0 17-14 31-31 31h-104c-17 0-31-14-31-31v-594z m-63 333h-135c-17 0-31-14-31-31v-302h166v333z m292-333v458h135c18 0 32-14 32-31v-427h-167z" horiz-adv-x="1000" />

<glyph glyph-name="icon-line" unicode="&#xe82b;" d="M792 663c-35 0-63-28-63-63 0-34 28-62 63-62 34 0 62 28 62 62 0 35-28 63-62 63z m-125-63c0 69 56 125 125 125 69 0 125-56 125-125 0-69-56-125-125-125-7 0-14 1-20 2l-85-140c13-20 21-44 21-70 0-69-56-125-125-125-37 0-71 16-94 43l-156-78c0-3 0-5 0-7 0-69-56-125-125-125-69 0-125 56-125 125 0 69 56 125 125 125 45 0 84-23 106-58l147 74c-2 8-3 17-3 26 0 69 56 125 125 125 20 0 39-5 56-13l75 123c-29 23-47 58-47 98z m-84-271c-34 0-62-28-62-62 0-35 28-63 62-63 35 0 63 28 63 63 0 34-28 62-63 62z m-375-166c-34 0-62-28-62-63 0-34 28-62 62-62 35 0 63 28 63 62 0 35-28 63-63 63z" horiz-adv-x="1000" />

<glyph glyph-name="icon-pie" unicode="&#xe82c;" d="M427 673c17 0 31-14 31-31v-334h334c16 0 29-11 31-27l0-4c0-207-168-354-375-354-207 0-375 168-375 375 0 207 147 375 354 375z m-31-64l-9-1c-154-20-252-151-252-310 0-173 140-313 313-313 159 0 290 98 310 252l1 9h-332c-16 0-29 12-31 27l0 4v332z m156 168c207 0 375-168 375-375 0-17-14-31-31-31h-344c-17 0-31 14-31 31v344c0 17 14 31 31 31z m31-64v-280h280l-1 9c-18 141-129 252-270 270l-9 1z" horiz-adv-x="1000" />

<glyph glyph-name="icon-scatter" unicode="&#xe82d;" d="M125 694c0 17 14 31 31 31 18 0 32-14 32-31v-656h656c17 0 31-14 31-32 0-17-14-31-31-31h-688c-17 0-31 14-31 31v688z m583-11c-69 0-125-56-125-125 0-69 56-125 125-125 69 0 125 56 125 125 0 69-56 125-125 125z m-62-125c0 35 28 63 62 63 35 0 63-28 63-63 0-34-28-62-63-62-34 0-62 28-62 62z m-396-83c0 69 56 125 125 125 69 0 125-56 125-125 0-69-56-125-125-125-69 0-125 56-125 125z m125 63c-34 0-62-28-62-63 0-34 28-62 62-62 35 0 63 28 63 62 0 35-28 63-63 63z m250-188c-69 0-125-56-125-125 0-69 56-125 125-125 69 0 125 56 125 125 0 69-56 125-125 125z m-62-125c0 35 28 63 62 63 35 0 63-28 63-63 0-34-28-62-63-62-34 0-62 28-62 62z" horiz-adv-x="1000" />

<glyph glyph-name="icon-sunburst" unicode="&#xe82e;" d="M646 673c-13 6-21 17-21 31 0 22 21 37 41 28 97-42 174-119 216-216 9-20-6-41-28-41-14 0-25 8-31 21-35 78-99 142-177 177z m-271 31c0 22-21 37-41 28-97-42-174-119-216-216-9-20 7-41 28-41 14 0 26 8 31 21 36 78 99 142 177 177 13 6 21 17 21 31z m271-677c-13-5-21-17-21-31 0-22 21-37 41-28 97 42 174 119 216 216 9 20-6 41-28 41-14 0-25-8-31-21-35-78-99-141-177-177z m-500 198c14 0 26-8 31-21 36-78 99-141 177-177 13-5 21-17 21-31 0-22-21-37-41-28-97 42-174 119-216 216-9 20 7 41 28 41z m354 354c-8 0-16 0-24-1-17-2-32 11-34 28-2 17 11 32 28 34 10 1 20 2 30 2 139 0 255-97 284-227 4-17-6-34-23-37-17-4-34 6-37 23-24 102-115 178-224 178z m-120 4c10-14 6-33-8-43-61-41-101-111-101-190 0-48 14-92 39-128 10-15 6-34-8-44-15-9-34-6-44 9-31 46-50 103-50 163 0 101 51 189 129 242 14 9 33 6 43-9z m380-271c16-4 26-21 22-38-34-124-147-216-282-216-49 0-95 12-135 34-16 8-22 27-14 42 9 15 27 21 43 13 31-17 68-26 106-26 106 0 195 72 221 169 5 17 22 27 39 22z m-260 205c-92 0-167-75-167-167 0-92 75-167 167-167 92 0 167 75 167 167 0 92-75 167-167 167z m-104-167c0 58 47 104 104 104 58 0 104-46 104-104 0-57-46-104-104-104-57 0-104 47-104 104z" horiz-adv-x="1000" />

<glyph glyph-name="icon-treemap" unicode="&#xe82f;" d="M125 590c0 74 61 135 135 135h480c74 0 135-61 135-135v-480c0-74-61-135-135-135h-480c-74 0-135 61-135 135v480z m135 73c-40 0-72-33-72-73v-480c0-40 32-72 72-72h115v625h-115z m178 0v-396h375v323c0 40-33 73-73 73h-302z m375-459h-375v-166h302c40 0 73 32 73 72v94z" horiz-adv-x="1000" />

<glyph glyph-name="icon-waterfall" unicode="&#xe830;" d="M83 694c0 17 14 31 32 31h270c52 0 94-42 94-94v-239h261c51 0 93-42 93-94v-260h52c18 0 32-14 32-32 0-17-14-31-32-31h-270c-52 0-94 42-94 94v260h-261c-51 0-93 42-93 94v240h-52c-18 0-32 14-32 31z m688-656v260c0 17-14 31-31 31h-157v-260c0-17 14-31 32-31h156z m-354 593c0 18-14 32-32 32h-156v-240c0-17 14-31 31-31h157v239z" horiz-adv-x="1000" />

<glyph glyph-name="icon-whisker" unicode="&#xe831;" d="M615 683c-18 0-32-14-32-31 0-17 14-31 32-31h41v-63h-21c-51 0-93-42-93-93v-292c0-52 42-94 93-94h21v-62h-41c-18 0-32-14-32-32 0-17 14-31 32-31h145c18 0 32 14 32 31 0 18-14 32-32 32h-41v62h21c51 0 93 42 93 94v292c0 51-42 93-93 93h-21v63h41c18 0 32 14 32 31 0 17-14 31-32 31h-145z m-11-218c0 17 14 31 31 31h105c17 0 31-14 31-31v-73h-167v73z m0-136h167v-156c0-17-14-31-31-31h-105c-17 0-31 14-31 31v156z m-364 438c-18 0-32-14-32-32 0-17 14-31 32-31h41v-62h-21c-51 0-93-42-93-94v-292c0-51 42-93 93-93h21v-63h-41c-18 0-32-14-32-31 0-17 14-31 32-31h145c18 0 32 14 32 31 0 17-14 31-32 31h-41v63h21c51 0 93 42 93 93v292c0 52-42 94-93 94h-21v62h41c18 0 32 14 32 31 0 18-14 32-32 32h-145z m20-542c-17 0-31 14-31 31v73h167v-73c0-17-14-31-31-31h-105z m136 167h-167v156c0 17 14 31 31 31h105c17 0 31-14 31-31v-156z" horiz-adv-x="1000" />

<glyph glyph-name="icon-desktop" unicode="&#xe832;" d="M281-67c-17 0-31 14-31 32 0 15 12 28 27 31l4 0 73 0v104l-177 0c-49 0-90 39-93 87l-1 7v437c0 50 39 91 88 94l6 0h646c50 0 90-38 93-87l1-7v-437c0-50-39-91-88-94l-6 0-177 0v-104l73 0c17 0 31-14 31-31 0-16-12-29-27-31l-4-1h-438z m302 167h-166l0-104h166l0 104z m240 563h-646c-16 0-29-12-31-27l0-5v-437c0-16 12-29 27-31l4-1h646c16 0 29 12 31 27l0 5v437c0 16-12 29-27 31l-4 1z" horiz-adv-x="1000" />

<glyph glyph-name="icon-floppy" unicode="&#xe833;" d="M125 610c0 64 51 115 115 115h415c36 0 70-14 96-40l84-84c26-26 40-60 40-96v-415c0-64-51-115-115-115h-520c-64 0-115 51-115 115v520z m115 53c-29 0-52-24-52-53v-520c0-29 23-52 52-52h10v218c0 52 42 94 94 94h312c52 0 94-42 94-94v-218h10c29 0 53 23 53 52v415c0 19-8 38-22 51l-85 85c-10 11-24 18-39 21v-114c0-52-42-94-94-94h-188c-51 0-93 42-93 94v115h-52z m448-625v218c0 18-14 32-32 32h-312c-17 0-31-14-31-32v-218h375z m-334 625v-115c0-17 14-31 31-31h188c17 0 31 14 31 31v115h-250z" horiz-adv-x="1000" />

<glyph glyph-name="icon-headset" unicode="&#xe834;" d="M500 79c-17 0-31-14-31-31 0-17 14-31 31-31 17 0 31 14 31 31 0 17-14 31-31 31z m229 354v42c0 127-102 229-229 229-127 0-229-102-229-229v-42h104c23 0 42-18 42-41v-167c0-23-19-42-42-42h-104v-10c0-50 38-90 87-94l7 0 47 0c13 37 47 63 88 63 52 0 94-42 94-94 0-52-42-94-94-94-41 0-76 26-88 63l-47 0c-84 0-152 65-156 148l-1 8v302c0 161 131 292 292 292 161 0 292-131 292-292v-208c0-44-34-80-77-83l-7-1h-83c-21 0-39 16-41 37l-1 5v167c0 21 16 39 37 41l5 0h104z m-375-62h-83v-125h83v125z m375 0h-83v-125h62c11 0 19 7 21 17l0 4v104z" horiz-adv-x="1000" />

<glyph glyph-name="icon-keyboard" unicode="&#xe835;" d="M823 642c52 0 94-42 94-94v-396c0-52-42-94-94-94h-646c-52 0-94 42-94 94v396c0 52 42 94 94 94h646z m0-63h-646c-17 0-31-14-31-31v-396c0-17 14-31 31-31h646c17 0 31 14 31 31v396c0 17-14 31-31 31z m-542-333h438c17 0 31-14 31-31 0-16-12-29-27-31l-4-1h-438c-17 0-31 14-31 32 0 15 12 29 27 31l4 0h438-438z m407 146c23 0 41-19 41-42 0-23-18-42-41-42-23 0-42 19-42 42 0 23 19 42 42 42z m-250 0c23 0 41-19 41-42 0-23-18-42-41-42-23 0-42 19-42 42 0 23 19 42 42 42z m-125 0c23 0 41-19 41-42 0-23-18-42-41-42-23 0-42 19-42 42 0 23 19 42 42 42z m250 0c23 0 41-19 41-42 0-23-18-42-41-42-23 0-42 19-42 42 0 23 19 42 42 42z m-313 125c23 0 42-19 42-42 0-23-19-42-42-42-23 0-42 19-42 42 0 23 19 42 42 42z m125 0c23 0 42-19 42-42 0-23-19-42-42-42-23 0-42 19-42 42 0 23 19 42 42 42z m125 0c23 0 42-19 42-42 0-23-19-42-42-42-23 0-42 19-42 42 0 23 19 42 42 42z m125 0c23 0 42-19 42-42 0-23-19-42-42-42-23 0-42 19-42 42 0 23 19 42 42 42z m125 0c23 0 42-19 42-42 0-23-19-42-42-42-23 0-42 19-42 42 0 23 19 42 42 42z" horiz-adv-x="1000" />

<glyph glyph-name="icon-laptop" unicode="&#xe836;" d="M115 163h770c18 0 32-14 32-32 0-16-12-29-27-31l-5 0h-770c-18 0-32 14-32 31 0 16 12 29 27 31l5 1h770-770z m645 479c41 0 73-33 73-73v-313c0-40-32-73-73-73h-520c-41 0-73 33-73 73v313c0 40 32 73 73 73h520z m0-63h-520c-6 0-11-4-11-10v-313c0-5 5-10 11-10h520c6 0 11 5 11 10v313c0 6-5 10-11 10z" horiz-adv-x="1000" />

<glyph glyph-name="icon-printer" unicode="&#xe837;" d="M656 725c52 0 94-42 94-94l0-31 31 0c75 0 136-61 136-135l0-250c0-52-42-94-94-94l-73 0v-52c0-52-42-94-94-94h-312c-52 0-94 42-94 94l0 52-73 0c-52 0-94 42-94 94v249c0 75 61 136 136 136l31 0 0 31c0 52 42 94 94 94h312z m0-437h-312c-17 0-31-14-31-32v-187c0-17 14-31 31-31h312c18 0 32 14 32 31v187c0 18-14 32-32 32z m125 249h-562c-40 0-73-32-73-73v-249c0-18 14-32 31-32l73 0v73c0 52 42 94 94 94h312c52 0 94-42 94-94l0-73 74 0c17 1 31 15 31 32l-1 249c0 41-32 73-73 73z m-125 126h-312c-17 0-31-14-31-32l0-31h375l0 31c0 18-14 32-32 32z" horiz-adv-x="1000" />

<glyph glyph-name="icon-document-excel" unicode="&#xe838;" d="M255 556h-36l18-31 78-140-84-160-16-31h34 81 13l6 12 35 80 35-80 6-12h13 82 35l-16 31-87 163 78 137 18 31h-36-80-14l-5-12-29-62-28 62-5 12h-14-82z m446-463v514h144v-514h-144z m-78 647v-780l-477 128v524l477 128z" horiz-adv-x="1000" />

<glyph glyph-name="icon-document" unicode="&#xe839;" d="M771 17c0-12-9-21-21-21h-500c-11 0-21 9-21 21v666c0 12 10 21 21 21h250v-187c0-46 37-84 83-84h188v-416z m-208 641l161-162h-141c-11 0-20 9-20 21v141z m246-159l-243 243c-1 1-2 2-3 3-3 3-6 6-10 8-1 1-3 2-5 3-3 1-6 3-9 4-8 4-17 6-26 6-2 0-4 1-6 1h0-7-250c-46 0-83-38-83-84v-666c0-46 37-84 83-84h500c46 0 83 38 83 84v416 8c0 22-8 43-24 58z" horiz-adv-x="1000" />

<glyph glyph-name="icon-board" unicode="&#xe83a;" d="M761 746c72 0 131-57 135-128l0-7 0-501c0-74-61-135-136-135h-500c-72 0-131 56-135 128l0 7 0 501c0 74 61 135 135 135h501z m-282-292l-291 0 0-344 0-6c3-37 34-67 72-67l219 0v417z m354-250l-291 0v-167l218 0c41 0 73 33 73 73l0 94z m-72 479l-219 0v-416l291 0 0 344 0 6c-3 37-34 66-72 66z m-282 0l-219 0-5 0c-38-3-67-34-67-72l0-94 291 0v166z" horiz-adv-x="1000" />

<glyph glyph-name="icon-branch" unicode="&#xe83b;" d="M167 621c0 80 65 146 146 146 80 0 145-66 145-146 0-66-44-122-104-140 28-94 116-162 219-162h14c14 65 72 114 142 114 81 0 146-65 146-145 0-81-65-146-146-146-70 0-128 49-142 114h-14c-93 0-176 44-229 112l0-146c65-15 114-73 114-143 0-80-65-146-145-146-81 0-146 66-146 146 0 70 49 128 114 143l0 256c-65 15-114 73-114 143z m146 83c-46 0-84-37-84-83 0-46 38-83 84-83 46 0 83 37 83 83 0 46-37 83-83 83z m0-541c-46 0-84-38-84-84 0-46 38-83 84-83 46 0 83 37 83 83 0 46-37 84-83 84z m333 125c0-46 37-84 83-84 46 0 84 38 84 84 0 46-38 83-84 83-46 0-83-37-83-83z" horiz-adv-x="1000" />

<glyph glyph-name="icon-calendar" unicode="&#xe83c;" d="M740 725c74 0 135-61 135-135v-480c0-74-61-135-135-135h-480c-74 0-135 61-135 135v480c0 74 61 135 135 135h480z m73-229h-625v-386c0-40 32-72 72-72h480c40 0 73 32 73 72v386z m-490-250c29 0 52-23 52-52 0-29-23-52-52-52-29 0-52 23-52 52 0 29 23 52 52 52z m177 0c29 0 52-23 52-52 0-29-23-52-52-52-29 0-52 23-52 52 0 29 23 52 52 52z m-177 167c29 0 52-24 52-53 0-28-23-52-52-52-29 0-52 24-52 52 0 29 23 53 52 53z m177 0c29 0 52-24 52-53 0-28-23-52-52-52-29 0-52 24-52 52 0 29 23 53 52 53z m177 0c29 0 52-24 52-53 0-28-23-52-52-52-29 0-52 24-52 52 0 29 23 53 52 53z m63 250h-480c-40 0-72-33-72-73v-32h625v32c0 40-33 73-73 73z" horiz-adv-x="1000" />

<glyph glyph-name="icon-check" unicode="&#xe83d;" d="M189 310c-12 12-32 12-44 0-13-13-13-32 0-45l187-187c12-12 32-12 44 0l459 458c12 12 12 32 0 44-13 13-32 13-45 0l-436-436-165 166z" horiz-adv-x="1000" />

<glyph glyph-name="icon-clock" unicode="&#xe83e;" d="M500 767c230 0 417-187 417-417 0-230-187-417-417-417-230 0-417 187-417 417 0 230 187 417 417 417z m0-70c-191 0-347-155-347-347 0-191 156-347 347-347 192 0 347 156 347 347 0 192-155 347-347 347z m-31-97c16 0 29-12 31-27l0-4v-219h135c18 0 32-14 32-31 0-16-12-29-27-31l-5 0h-166c-16 0-29 11-31 27l0 4v250c0 17 14 31 31 31z" horiz-adv-x="1000" />

<glyph glyph-name="icon-configuration" unicode="&#xe83f;" d="M501 756c30 0 61-4 90-10 13-3 23-14 25-27l7-64c3-29 28-51 57-51 8 0 16 1 23 5l58 25c13 6 27 3 36-7 42-45 73-99 92-158 4-13-1-27-12-34l-51-39c-15-10-24-28-24-46 0-18 9-35 24-46l51-38c11-8 16-22 12-35-18-59-50-113-92-158-9-10-23-12-35-7l-59 26c-17 7-36 6-52-3-16-10-26-26-28-44l-7-64c-2-13-11-23-24-27-60-14-123-14-184 0-13 4-22 14-24 27l-7 64c-2 18-12 34-28 43-16 10-35 11-52 3l-58-25c-13-6-27-3-36 7-42 45-73 99-92 158-3 13 1 27 12 34l52 39c14 11 23 28 23 46 0 18-9 36-23 46l-52 39c-11 7-15 21-12 34 19 59 50 113 92 158 9 10 24 13 36 7l58-25c17-8 36-7 52 3 16 9 26 25 28 43l8 64c1 13 11 24 24 27 30 6 60 10 92 10z m0-62c-19 0-38-2-57-5l-4-41c-5-38-27-71-60-90-33-20-73-22-108-7l-38 17c-23-29-42-62-56-97l34-24c30-23 49-59 49-97 0-38-19-74-49-97l-34-24c14-35 33-68 56-97l38 17c35 15 75 13 108-6 33-19 55-53 60-91l4-41c37-6 75-6 112 0l5 41c4 38 26 72 59 91 33 19 73 21 108 6l38-17c24 29 43 62 56 97l-33 24c-31 23-49 59-49 97 0 38 18 74 49 97l33 24c-14 35-32 68-56 97l-38-17c-15-6-31-10-48-10-61 0-113 46-119 107l-5 41c-18 3-37 5-55 5z m-1-188c86 0 156-70 156-156 0-86-70-156-156-156-86 0-156 70-156 156 0 86 70 156 156 156z m0-62c-52 0-94-42-94-94 0-52 42-94 94-94 52 0 94 42 94 94 0 52-42 94-94 94z" horiz-adv-x="1000" />

<glyph glyph-name="icon-filter" unicode="&#xe840;" d="M563 183c17 0 31-14 31-31 0-17-14-31-31-31h-125c-18 0-32 14-32 31 0 17 14 31 32 31h125z m125 209c17 0 31-14 31-32 0-17-14-31-31-31h-375c-18 0-32 14-32 31 0 18 14 32 32 32h375z m125 208c17 0 31-14 31-31 0-17-14-31-31-31h-625c-18 0-32 14-32 31 0 17 14 31 32 31h625z" horiz-adv-x="1000" />

<glyph glyph-name="icon-full-screen-maximize" unicode="&#xe841;" d="M188 610c0 29 23 53 52 53h83c17 0 31 14 31 31 0 17-14 31-31 31h-83c-64 0-115-51-115-115v-83c0-17 14-31 31-31 18 0 32 14 32 31v83z m0-520c0-29 23-52 52-52h83c17 0 31-14 31-32 0-17-14-31-31-31h-83c-64 0-115 51-115 115v83c0 17 14 31 31 31 18 0 32-14 32-31v-83z m572 573c29 0 53-24 53-53v-83c0-17 14-31 31-31 17 0 31 14 31 31v83c0 64-51 115-115 115h-83c-17 0-31-14-31-31 0-17 14-31 31-31h83z m53-573c0-29-24-52-53-52h-83c-17 0-31-14-31-32 0-17 14-31 31-31h83c64 0 115 51 115 115v83c0 17-14 31-31 31-17 0-31-14-31-31v-83z" horiz-adv-x="1000" />

<glyph glyph-name="icon-full-screen-minimize" unicode="&#xe842;" d="M354 694c0 17-14 31-31 31-17 0-31-14-31-31v-104c0-18-14-32-32-32h-104c-17 0-31-14-31-31 0-17 14-31 31-31h104c52 0 94 42 94 94v104z m0-688c0-17-14-31-31-31-17 0-31 14-31 31v104c0 18-14 32-32 32h-104c-17 0-31 14-31 31 0 17 14 31 31 31h104c52 0 94-42 94-94v-104z m323 719c-17 0-31-14-31-31v-104c0-52 42-94 94-94h104c17 0 31 14 31 31 0 17-14 31-31 31h-104c-18 0-32 14-32 32v104c0 17-14 31-31 31z m-31-719c0-17 14-31 31-31 17 0 31 14 31 31v104c0 18 14 32 32 32h104c17 0 31 14 31 31 0 17-14 31-31 31h-104c-52 0-94-42-94-94v-104z" horiz-adv-x="1000" />

<glyph glyph-name="icon-globe" unicode="&#xe843;" d="M500 767c230 0 417-187 417-417 0-230-187-417-417-417-230 0-417 187-417 417 0 230 187 417 417 417z m123-604h-245c27-101 74-167 122-167 48 0 95 66 123 167z m-310 0l-114 0c40-64 100-115 171-143-22 35-40 77-53 126l-4 17z m488 0l-114 0c-13-56-33-105-57-143 67 27 123 72 163 131l8 12z m-505 270h-140l0 0c-7-27-10-55-10-83 0-44 8-86 23-125l132 0c-6 40-9 82-9 125 0 29 1 56 4 83z m346 0h-283c-3-26-5-54-5-83 0-44 4-86 10-125h272c6 39 10 81 10 125 0 29-2 57-4 83z m202 0l-140 0c3-27 4-54 4-83 0-43-3-85-9-125l133 0c14 39 22 81 22 125 0 29-3 57-10 83z m-474 247l-1-1c-85-34-154-100-192-183l127 0c13 73 36 136 66 184z m130 24l-5 0c-52-5-103-88-127-208h264c-23 119-74 203-127 208l-5 0z m130-24l5-8c27-46 49-107 61-176l127 0c-36 80-101 143-181 179l-12 5z" horiz-adv-x="1000" />

<glyph glyph-name="icon-heart" unicode="&#xe844;" d="M534 618l-34-35-34 35c-88 87-230 87-317 0-87-88-87-230 0-317l329-329c12-12 32-12 44 0l329 329c88 88 88 229 0 317-87 87-229 87-317 0z m273-273l-307-307-307 307c-63 63-63 165 0 228 63 63 165 63 229 0l56-56c12-13 33-12 45 0l55 56c64 64 166 64 229 0 63-63 63-165 0-228z" horiz-adv-x="1000" />

<glyph glyph-name="icon-info" unicode="&#xe845;" d="M500 767c230 0 417-187 417-417 0-230-187-417-417-417-230 0-417 187-417 417 0 230 187 417 417 417z m0-63c-196 0-354-158-354-354 0-196 158-354 354-354 196 0 354 158 354 354 0 196-158 354-354 354z m0-291c16 0 29-12 31-27l0-5 0-229c0-17-14-31-31-31-16 0-29 12-31 27l0 4 0 229c0 18 14 32 31 32z m0 145c23 0 42-18 42-41 0-23-19-42-42-42-23 0-42 19-42 42 0 23 19 41 42 41z" horiz-adv-x="1000" />

<glyph glyph-name="icon-layers" unicode="&#xe846;" d="M834 342c-6-10-14-18-24-25l-252-170c-35-24-81-24-116 0l-252 170c-32 22-44 61-33 96l285-190c33-22 75-24 109-5l7 5 285 190c7-23 5-49-9-71z m9-65c7-23 5-48-9-70-6-10-14-19-24-25l-252-170c-35-24-81-24-116 0l-252 170c-32 21-44 61-33 95l285-190c33-22 75-23 109-4l7 4 285 190z m-285 430l265-176c19-13 24-39 12-58-3-5-7-9-12-12l-265-177c-35-23-81-23-116 0l-265 177c-19 13-24 39-12 58 4 5 7 8 12 12l265 176c35 24 81 24 116 0z m-76-49l-5-3-239-159 239-160c12-8 28-9 41-2l5 2 239 160-239 159c-12 9-28 10-41 3z" horiz-adv-x="1000" />

<glyph glyph-name="icon-mail" unicode="&#xe847;" d="M219 683h562c73 0 132-56 136-127l0-8v-396c0-72-57-131-128-135l-8 0h-562c-72 0-131 56-135 127l-1 8v396c0 72 57 131 128 135l8 0h562-562z m635-223l-339-179c-8-4-17-5-26-2l-4 2-339 178v-307c0-38 29-69 67-73l6 0h562c39 0 70 30 73 67l0 6v308z m-73 161h-562c-38 0-70-30-73-67l0-6v-18l354-186 354 186v18c0 38-29 70-67 73l-6 0z" horiz-adv-x="1000" />

<glyph glyph-name="icon-menu-hamburguer-cool" unicode="&#xe848;" d="M313 261h660c15 0 27-12 27-27 0-14-10-25-23-27l-4 0h-660c-15 0-27 12-27 27 0 14 10 25 23 27l4 0h660-660z m-286 214h661c14 0 26-12 26-27 0-13-10-25-23-26l-3-1h-661c-15 0-27 12-27 27 0 14 10 25 23 27l4 0h661-661z" horiz-adv-x="1000" />

<glyph glyph-name="icon-menu-hamburguer" unicode="&#xe849;" d="M115 256h770c18 0 32-14 32-31 0-16-12-29-27-31l-5 0h-770c-18 0-32 14-32 31 0 16 12 29 27 31l5 0h770-770z m0 250h770c18 0 32-14 32-31 0-16-12-29-27-31l-5 0h-770c-18 0-32 14-32 31 0 16 12 29 27 31l5 0h770-770z" horiz-adv-x="1000" />

<glyph glyph-name="icon-more-horizontal" unicode="&#xe84a;" d="M323 350c0-40-33-73-73-73-40 0-73 33-73 73 0 40 33 73 73 73 40 0 73-33 73-73z m250 0c0-40-33-73-73-73-40 0-73 33-73 73 0 40 33 73 73 73 40 0 73-33 73-73z m177-73c40 0 73 33 73 73 0 40-33 73-73 73-40 0-73-33-73-73 0-40 33-73 73-73z" horiz-adv-x="1000" />

<glyph glyph-name="icon-more-vertical" unicode="&#xe84b;" d="M500 527c-40 0-73 33-73 73 0 40 33 73 73 73 40 0 73-33 73-73 0-40-33-73-73-73z m0-250c-40 0-73 33-73 73 0 40 33 73 73 73 40 0 73-33 73-73 0-40-33-73-73-73z m-73-177c0-40 33-73 73-73 40 0 73 33 73 73 0 40-33 73-73 73-40 0-73-33-73-73z" horiz-adv-x="1000" />

<glyph glyph-name="icon-notification-off" unicode="&#xe84c;" d="M218 588l-125 125c-13 13-13 32 0 45 12 12 32 12 44 0l771-771c12-13 12-32 0-45-13-12-32-12-45 0l-136 137-102 0c0-69-56-125-125-125-67 0-121 52-125 118l0 7-197 0c-7 0-14 2-21 5-26 11-38 42-27 68l58 132v170c0 48 10 94 30 134z m446-446l-399 399c-10-27-15-56-15-87v-183l-56-129h470z m-101-63l-125 0c0-34 28-62 62-62 33 0 59 24 62 56l1 6z m187 192l30-68 91-91c2 6 3 12 3 19 0 7-1 15-4 21l-57 132v170l-1 11c-5 169-143 302-312 302-79 0-151-29-206-78l44-44c43 37 100 59 162 59 135 0 245-106 250-241l0-9 0-183z" horiz-adv-x="1000" />

<glyph glyph-name="icon-notification-on" unicode="&#xe84d;" d="M500 767c169 0 307-133 312-302l1-11v-170l57-132c3-6 4-14 4-21 0-28-23-52-52-52l-197 0c0-69-56-125-125-125-67 0-121 52-125 118l0 7-197 0c-7 0-14 2-21 5-26 11-38 42-27 68l58 132v170c0 173 139 313 312 313z m63-688l-125 0c0-34 28-62 62-62 33 0 59 24 62 56l1 6z m-63 625c-138 0-250-111-250-250v-183l-56-129h612l-56 129 0 183 0 9c-5 135-115 241-250 241z m375-198h83c18 0 32-14 32-31 0-16-12-29-27-31l-5 0h-83c-17 0-31 14-31 31 0 16 12 29 27 31l4 0z m-833 0h83c17 0 31-14 31-31 0-16-11-29-27-31l-4 0h-83c-18 0-32 14-32 31 0 16 12 29 27 31l5 0z m900 238c9-13 8-30-3-41l-4-3-83-62c-14-11-33-8-44 6-9 12-8 30 3 41l4 3 83 62c14 10 33 8 44-6z m-840 6l83-62c14-11 17-30 7-44-11-14-30-17-44-6l-83 62c-14 10-17 30-7 44 11 14 30 16 44 6z" horiz-adv-x="1000" />

<glyph glyph-name="icon-notification-snooze" unicode="&#xe84e;" d="M500 704c-129 0-250-101-250-260v-173l-55-129h611l-56 129v89c0 18 14 32 31 32 18 0 32-14 32-32v-76l57-132c15-34-10-73-48-73h-197c0-69-56-125-125-125-69 0-125 56-125 125h-196c-37 0-62 38-48 73l57 132v160c0 195 150 323 312 323 36 0 71-6 104-18 16-6 25-24 19-40-6-16-23-25-40-19-26 9-54 14-83 14z m0-687c35 0 63 28 63 62h-126c1-34 29-62 63-62z m135 541h-104l-4 0c-15-2-27-15-27-31 0-17 14-31 31-31h44l-69-97-2-3c-11-21 3-46 27-46h104l5 0c15 2 27 15 27 31 0 18-14 32-32 32h-43l69 96 2 4c11 20-4 45-28 45z m250 209h-145l-5-1c-15-2-27-15-27-31 0-17 14-31 32-31h89l-116-181-2-4c-9-20 5-44 29-44h145l5 0c15 2 27 15 27 31 0 18-14 32-32 32h-88l115 181 2 3c9 21-5 45-29 45z" horiz-adv-x="1000" />

<glyph glyph-name="icon-notification-urgent" unicode="&#xe84f;" d="M435 20l148 63c6-37-14-74-50-89-36-15-76-4-98 26z m226 743c87-48 152-109 195-183 43-74 63-161 61-260-1-18-15-31-32-31-17 1-31 15-31 32 2 88-15 164-52 228-37 64-94 117-171 159-15 8-21 27-12 42 8 16 27 21 42 13z m-381-184c119 53 258 2 316-115l4-9 54-120 71-61c4-4 7-7 11-14l2-5c12-26 0-57-26-68l-430-191c-7-3-14-4-22-4-28 0-52 23-52 52l0 98-51 116c-55 123 0 266 123 321z m-66-296l57-128 0-95 401 177-69 60-59 132-4 8c-43 87-146 124-235 84-91-40-132-146-91-238z m437 330c40-22 73-54 97-96 23-41 35-85 34-131-1-17-15-31-32-30-17 0-31 14-31 32 1 34-7 67-26 98-18 32-42 56-72 72-15 8-21 27-12 42 8 15 27 21 42 13z" horiz-adv-x="1000" />

<glyph glyph-name="icon-notification" unicode="&#xe850;" d="M500 767c169 0 307-133 312-302l1-11v-170l57-132c3-6 4-14 4-21 0-28-23-52-52-52l-197 0c0-69-56-125-125-125-67 0-121 52-125 118l0 7-197 0c-7 0-14 2-21 5-26 11-38 42-27 68l58 132v170c0 173 139 313 312 313z m63-688l-125 0c0-34 28-62 62-62 33 0 59 24 62 56l1 6z m-63 625c-138 0-250-111-250-250v-183l-56-129h612l-56 129 0 183 0 9c-5 135-115 241-250 241z" horiz-adv-x="1000" />

<glyph glyph-name="icon-options" unicode="&#xe851;" d="M365 288c64 0 117-45 131-105l389 0c18 0 32-14 32-31 0-16-12-29-27-31l-5 0-389 0c-14-60-67-104-131-104-64 0-118 44-132 104l-118 0c-18 0-32 14-32 31 0 16 12 29 27 31l5 0 118 0c14 60 68 105 132 105z m0-63c-32 0-59-20-69-49l-1-2-2-7c-1-5-1-10-1-15 0-6 1-13 2-19l2-5 1-3c11-27 37-46 68-46 31 0 59 21 68 49l2 5-1-2c2 7 4 14 4 21 0 5-1 9-2 13l-1 6-1 3-2 5c-10 27-37 46-67 46z m270 458c64 0 118-44 132-104l118 0c18 0 32-14 32-31 0-16-12-29-27-31l-5 0-118 0c-14-60-68-104-132-104-64 0-117 44-131 104l-389 0c-18 0-32 14-32 31 0 16 12 29 27 31l5 0 389 0c14 60 67 104 131 104z m0-62c-31 0-58-21-68-49l-1-3-2-6c-1-5-1-10-1-15 0-6 0-13 2-19l2-5 1-3c10-27 37-46 67-46 32 0 59 20 69 49l2 5-1-2c2 6 3 14 3 21 0 4 0 9-1 13l-1 5-1 3-2 6c-11 27-37 46-68 46z" horiz-adv-x="1000" />

<glyph glyph-name="icon-organization" unicode="&#xe852;" d="M490 767c-87 0-157-70-157-157 0-75 54-138 125-153v-86h-135c-52 0-94-42-94-94v-34c-71-15-125-78-125-153 0-87 70-157 157-157 86 0 156 70 156 157 0 75-54 138-125 153v34c0 17 14 31 31 31h333c18 0 32-14 32-31v-34c-72-15-125-78-125-153 0-87 70-157 156-157 86 0 156 70 156 157 0 75-54 138-125 153v34c0 52-42 94-94 94h-135v86c71 15 125 78 125 153 0 87-70 157-156 157z m-94-157c0 52 42 94 94 94 51 0 93-42 93-94 0-51-42-93-93-93-52 0-94 42-94 93z m-229-520c0 51 42 93 94 93 51 0 93-42 93-93 0-52-42-94-93-94-52 0-94 42-94 94z m552 93c52 0 94-42 94-93 0-52-42-94-94-94-52 0-94 42-94 94 0 51 42 93 94 93z" horiz-adv-x="1000" />

<glyph glyph-name="icon-play" unicode="&#xe853;" d="M317 658c-21 11-46-4-46-28v-560c0-24 25-39 46-28l515 281c22 11 22 43 0 54l-515 281z m-109-28c0 71 76 117 139 83l515-281c65-35 65-129 0-164l-515-281c-63-34-139 12-139 83v560z" horiz-adv-x="1000" />

<glyph glyph-name="icon-radio-off" unicode="&#xe854;" d="M500-67c230 0 417 187 417 417 0 230-187 417-417 417-230 0-417-187-417-417 0-230 187-417 417-417z m0 63c-196 0-354 158-354 354 0 196 158 354 354 354 196 0 354-158 354-354 0-196-158-354-354-354z" horiz-adv-x="1000" />

<glyph glyph-name="icon-radio-on" unicode="&#xe855;" d="M500 767c230 0 417-187 417-417 0-230-187-417-417-417-230 0-417 187-417 417 0 230 187 417 417 417z m0-63c-196 0-354-158-354-354 0-196 158-354 354-354 196 0 354 158 354 354 0 196-158 354-354 354z m0-104c138 0 250-112 250-250 0-138-112-250-250-250-138 0-250 112-250 250 0 138 112 250 250 250z" horiz-adv-x="1000" />

<glyph glyph-name="icon-search" unicode="&#xe856;" d="M417 735c167 0 302-135 302-302 0-72-26-138-68-190l204-204c13-12 13-32 0-44-11-12-28-13-40-4l-4 4-204 204c-52-42-118-68-190-68-167 0-302 136-302 302 0 167 135 302 302 302z m0-62c-133 0-240-107-240-240 0-132 107-239 240-239 132 0 239 107 239 239 0 133-107 240-239 240z" horiz-adv-x="1000" />

<glyph glyph-name="icon-table-default" unicode="&#xe857;" d="M125 590c0 74 61 135 135 135h480c74 0 135-61 135-135v-480c0-74-61-135-135-135h-480c-74 0-135 61-135 135v480z m135 73c-40 0-72-33-72-73v-94h166v167h-94z m-72-230v-166h166l0 166h-166z m229 0l0-166h166l0 166h-166z m229 0l0-166h167v166h-167z m-63-229h-166v-166h166v166z m63-166h94c40 0 73 32 73 72v94h-167v-166z m0 458h167v94c0 40-33 73-73 73h-94v-167z m-63 167h-166v-167h166v167z m-395-459v-94c0-40 32-72 72-72h94v166h-166z" horiz-adv-x="1000" />

<glyph glyph-name="icon-table-resize-horizontal" unicode="&#xe858;" d="M649 381h-298l37 42c11 13 10 33-3 44-13 12-32 10-44-2l-83-94c-11-12-11-30 0-42l83-93c12-13 31-15 44-3 13 11 14 31 3 44l-37 42h298l-37-42c-11-13-10-33 3-44 13-12 32-10 44 3l83 93c0 0 0 1 1 1 4 5 7 12 7 19 0 1 0 1 0 2 0 8-3 15-8 20l-83 94c-12 12-31 14-44 2-13-11-14-31-3-44l37-42z m91 344c74 0 135-61 135-135v-480c0-74-61-135-135-135h-480c-74 0-135 61-135 135v480c0 74 61 135 135 135h480z m73-135c0 40-33 73-73 73h-11v-215l-39 44c-7 8-15 14-23 18v153h-334v-153c-8-4-16-10-23-18l-39-44v215h-11c-40 0-72-33-72-73v-480c0-40 32-72 72-72h11v214l39-44c7-8 15-14 23-18v-152h334v152c8 4 16 10 23 18l39 44v-214h11c40 0 73 32 73 72v480z" horiz-adv-x="1000" />

<glyph glyph-name="icon-table-resize-vertical" unicode="&#xe859;" d="M531 201v298l42-37c13-11 33-10 44 3 12 13 10 32-2 44l-94 83c-12 11-30 11-42 0l-93-83c-13-12-15-31-3-44 11-13 31-14 44-3l42 37v-298l-42 37c-13 11-33 10-44-3-12-13-10-32 3-44l93-83c0 0 1 0 1 0 5-5 12-8 19-8 1 0 1 0 2 0 8 0 15 3 20 8l94 83c12 12 14 31 2 44-11 13-31 14-44 3l-42-37z m209-226c74 0 135 61 135 135v480c0 74-61 135-135 135h-480c-74 0-135-61-135-135v-480c0-74 61-135 135-135h480z m73 135c0-40-33-72-73-72h-480c-40 0-72 32-72 72v11h214l-44 39c-8 7-14 15-18 23h-152l0 334h152c4 8 10 16 18 23l44 39-214 0v11c0 40 32 73 72 73l480 0c40 0 73-33 73-73v-11l-215 0 44-39c8-7 14-15 18-23h153v-334h-153c-4-8-10-16-18-23l-44-39h215v-11z" horiz-adv-x="1000" />

<glyph glyph-name="icon-table-simple" unicode="&#xe85a;" d="M125 590c0 74 61 135 135 135h480c74 0 135-61 135-135v-480c0-74-61-135-135-135h-480c-74 0-135 61-135 135v480z m135 73c-40 0-72-33-72-73v-209h281v282h-209z m209-344h-281v-209c0-40 32-72 72-72h209v281z m62 0v-281h209c40 0 73 32 73 72v209h-282z m282 62v209c0 40-33 73-73 73h-209v-282h282z" horiz-adv-x="1000" />

<glyph glyph-name="icon-zoom-in" unicode="&#xe85b;" d="M563 433c0 18-14 32-32 32h-83v83c0 17-14 31-31 31-18 0-32-14-32-31v-83h-83c-17 0-31-14-31-32 0-17 14-31 31-31h83v-83c0-17 14-31 32-31 17 0 31 14 31 31v83h83c18 0 32 14 32 31z m-146 302c167 0 302-135 302-302 0-72-26-138-68-190l204-204c13-12 13-32 0-44-11-12-28-13-40-4l-4 4-204 204c-52-42-118-68-190-68-167 0-302 136-302 302 0 167 135 302 302 302z m0-62c-133 0-240-107-240-240 0-132 107-239 240-239 132 0 239 107 239 239 0 133-107 240-239 240z" horiz-adv-x="1000" />

<glyph glyph-name="icon-zoom-out" unicode="&#xe85c;" d="M531 465c18 0 32-14 32-32 0-17-14-31-32-31h-229c-17 0-31 14-31 31 0 18 14 32 31 32h229z m188-32c0 167-135 302-302 302-167 0-302-135-302-302 0-166 135-302 302-302 72 0 138 26 190 68l204-204 4-4c12-9 29-8 40 4 13 12 13 32 0 44l-204 204c42 52 68 118 68 190z m-542 0c0 133 107 240 240 240 132 0 239-107 239-240 0-132-107-239-239-239-133 0-240 107-240 239z" horiz-adv-x="1000" />

<glyph glyph-name="icon-person" unicode="&#xe85d;" d="M740 267c52 0 94-42 94-94v-24c0-37-14-73-38-102-65-76-165-114-296-114-131 0-230 38-296 114-24 29-37 65-37 102v24c0 52 42 94 94 94h479z m0-63h-479c-18 0-32-14-32-31v-24c0-22 8-44 23-61 52-61 134-92 248-92 114 0 196 31 248 92 15 17 23 39 23 61v24c0 17-14 31-31 31z m-240 563c115 0 208-94 208-209 0-115-93-208-208-208-115 0-208 93-208 208 0 115 93 209 208 209z m0-63c-80 0-146-65-146-146 0-80 66-146 146-146 81 0 146 66 146 146 0 81-65 146-146 146z" horiz-adv-x="1000" />

<glyph glyph-name="icon-circle" unicode="&#xe85e;" d="M500 704c-196 0-354-158-354-354 0-196 158-354 354-354 196 0 354 158 354 354 0 196-158 354-354 354z m-417-354c0 230 187 417 417 417 230 0 417-187 417-417 0-230-187-417-417-417-230 0-417 187-417 417z" horiz-adv-x="1000" />

<glyph glyph-name="icon-placeholder" unicode="&#xe85f;" d="M500-67c230 0 417 187 417 417 0 230-187 417-417 417-230 0-417-187-417-417 0-230 187-417 417-417z" horiz-adv-x="1000" />
</font>
</defs>
</svg>
